<svg xmlns="http://www.w3.org/2000/svg" width="1428" height="685" viewBox="0 0 1428 685">
    <g fill="none" fill-rule="evenodd" stroke="#F3E500" stroke-linecap="round" stroke-linejoin="round">
        <path stroke-dasharray="0 7.998" stroke-width=".25" d="M151.49 312.02c37.358 8.57 59.862 28.149 90.16 49.943 44.923 32.314 117.418 17.318 164.664 3.755 33.277-9.552 64.564-25.364 100.09-28.731 29.698-2.815 58.475-9.8 87.418-16.81 50.498-12.23 102.375-15.981 152.69-27.613 65.625-15.172 112.788-62.846 170.477-92.167 63.666-32.36 148.655-13.095 218.562-16.465 58.823-2.835 114.615-12.551 164.213-45.801 46.95-31.476 84.115-79.53 102.672-133.046" transform="rotate(-2 1434.269 -12.655)"/>
        <path stroke-width=".25" d="M1403.667 1.28L1403.667 1.28" transform="rotate(-2 1434.269 -12.655)"/>
        <path stroke-width=".275" d="M146.885 311.453L146.885 311.453" transform="rotate(-2 1434.269 -12.655)"/>
        <path stroke-dasharray="0 7.998" stroke-width=".275" d="M153.054 312.962c13.11 3.236 25.965 7.445 37.925 13.8 19.133 10.164 32.366 26.58 49.902 38.733 44.44 30.8 118.01 15.037 164.65 3.392 33.299-8.313 64.802-26.325 99.87-30.198 28.687-3.169 56.538-9.097 84.66-15.554 50.62-11.623 102.789-15.094 153.12-26.662 65.568-15.07 111.847-62.852 168.949-92.848 32.035-16.829 67.553-17.13 103.343-16.605 38.334.563 76.667 2.044 114.998.448 60.128-2.502 118.518-10.953 169.293-45.092 46.892-31.528 84.122-79.397 102.672-132.92" transform="rotate(-2 1434.269 -12.655)"/>
        <path stroke-width=".275" d="M1403.667 5.648L1403.667 5.648" transform="rotate(-2 1434.269 -12.655)"/>
        <path stroke-width=".299" d="M148.468 312.363L148.468 312.363" transform="rotate(-2 1434.269 -12.655)"/>
        <path stroke-dasharray="0 7.998" stroke-width=".299" d="M154.586 313.975c12.566 3.385 24.837 7.915 36.106 14.49 18.663 10.89 31.48 28.31 49.205 40.262 43.851 29.569 118.687 12.912 164.618 2.985 33.3-7.197 64.774-26.578 99.15-31.132 27.853-3.69 55.067-8.561 82.553-14.547 51.47-11.211 104.91-14.248 155.873-26.39 64.266-15.308 109.216-62.673 164.89-92.855 31.262-16.947 66.31-17.407 101.428-16.83 38.005.627 76.001 2.32 114.013 1.076 62.04-2.032 124.827-8.912 177.325-44.394 46.822-31.646 84.135-79.241 102.69-132.815" transform="rotate(-2 1434.269 -12.655)"/>
        <path stroke-width=".299" d="M1403.667 10.016L1403.667 10.016" transform="rotate(-2 1434.269 -12.655)"/>
        <path stroke-width=".324" d="M150.024 313.33L150.024 313.33" transform="rotate(-2 1434.269 -12.655)"/>
        <path stroke-dasharray="0 7.998" stroke-width=".324" d="M156.079 315.075c35.617 10.609 52.92 37.507 82.636 56.696 15.569 10.054 32.65 12.52 50.88 12.802 37.834.586 77.209-3.563 113.682-10.36 25.8-4.808 49.204-13.554 73.576-23.938 8.55-3.643 16.823-6.261 25.98-7.762 26.578-4.356 52.98-8.158 79.415-13.621 51.428-10.629 104.964-13.371 155.799-25.446 64.224-15.257 108.376-62.775 163.529-93.553 32.177-17.956 68.495-17.704 104.76-16.935 37.61.798 75.2 2.501 112.825 1.403 62.187-1.814 127.864-7.664 180.604-43.418 46.742-31.689 84.132-79.198 102.67-132.75" transform="rotate(-2 1434.269 -12.655)"/>
        <path stroke-width=".324" d="M1403.667 14.384L1403.667 14.384" transform="rotate(-2 1434.269 -12.655)"/>
        <path stroke-width=".349" d="M151.545 314.374L151.545 314.374" transform="rotate(-2 1434.269 -12.655)"/>
        <path stroke-dasharray="0 7.998" stroke-width=".349" d="M157.524 316.28c34.39 11.432 50.534 40.126 79.82 58.314 15.32 9.514 32.275 11.303 49.97 11.373 38.105.153 77.515-3.64 114.519-9.555 26.303-4.205 51.096-10.797 75.369-22.65 8.164-3.986 15.962-7.34 24.868-9.18 25.119-5.185 50.902-7.923 76.13-12.865 51.28-10.048 104.91-12.393 155.483-24.517 64.2-15.392 107.537-62.882 162.26-94.252 31.427-18.014 67.296-17.969 102.937-17.142 38.898.903 77.762 2.903 116.682 1.89 62.112-1.617 131.4-6.448 184.186-42.435 46.665-31.813 84.142-79.106 102.689-132.7" transform="rotate(-2 1434.269 -12.655)"/>
        <path stroke-width=".349" d="M1403.667 18.751L1403.667 18.751" transform="rotate(-2 1434.269 -12.655)"/>
        <path stroke-width=".373" d="M153.023 315.512L153.023 315.512" transform="rotate(-2 1434.269 -12.655)"/>
        <path stroke-dasharray="0 7.998" stroke-width=".373" d="M158.912 317.61c32.947 12.302 48.03 42.47 76.88 59.64 14.533 8.648 30.845 10.024 47.407 10 38.9-.057 79.017-3.746 116.997-8.922 26.668-3.635 53.643-8.319 77.957-21.098 7.93-4.168 15.092-8.379 23.842-10.562 23.364-5.832 48.36-7.73 72.058-12.147 51.923-9.678 106.77-11.336 157.748-24.22 62.816-15.876 104.973-62.979 158.318-94.343 31.104-18.287 67-18.228 102.464-17.308 38.856 1.007 77.668 3.196 116.553 2.401 62.58-1.278 137.267-4.839 190.611-41.436 46.57-31.948 84.134-79.067 102.69-132.686" transform="rotate(-2 1434.269 -12.655)"/>
        <path stroke-width=".373" d="M1403.667 23.118L1403.667 23.118" transform="rotate(-2 1434.269 -12.655)"/>
        <path stroke-width=".398" d="M154.45 316.763L154.45 316.763" transform="rotate(-2 1434.269 -12.655)"/>
        <path stroke-dasharray="0 7.998" stroke-width=".398" d="M160.237 319.079c31.327 13.21 45.431 44.405 73.847 60.594 14.327 8.162 30.539 8.964 46.651 8.747 39.134-.528 79.231-3.996 117.647-8.436 26.29-3.04 55.928-5.833 79.97-18.621 7.861-4.181 14.395-9.594 22.988-12.334 21.484-6.853 46.417-7.798 68.567-11.728 51.658-9.166 106.335-10.511 156.99-23.328 62.803-15.893 104.292-63.21 157.235-95.04 30.445-18.305 65.87-18.474 100.775-17.502 38.333 1.066 76.618 3.459 114.982 2.976 63.901-.805 145.11-3.001 199.875-40.4 46.524-31.771 84.177-79.253 102.672-132.711" transform="rotate(-2 1434.269 -12.655)"/>
        <path stroke-width=".398" d="M1403.667 27.485L1403.667 27.485" transform="rotate(-2 1434.269 -12.655)"/>
        <path stroke-width=".423" d="M155.817 318.142L155.817 318.142" transform="rotate(-2 1434.269 -12.655)"/>
        <path stroke-dasharray="0 7.998" stroke-width=".423" d="M161.49 320.707c29.56 14.126 42.713 46.036 70.75 61.173 14.656 7.912 31.264 8.084 47.52 7.574 38.855-1.219 78.318-4.323 116.643-8.055 26.283-2.56 57.874-3.943 82.162-16.27 7.983-4.05 14.3-10.528 22.737-13.754 19.526-7.464 44.033-7.858 64.484-11.312 50.451-8.519 103.57-9.864 153.14-21.755 64.21-15.403 105.727-64.048 159.086-96.43 31.293-18.992 67.955-18.719 104.114-17.54 36.125 1.178 72.197 3.533 108.36 3.36 66.094-.319 151.732-1.962 209.22-39.276 46.76-30.35 84.51-80.108 102.73-132.76" transform="rotate(-2 1434.269 -12.655)"/>
        <path stroke-width=".423" d="M1403.667 31.852L1403.667 31.852" transform="rotate(-2 1434.269 -12.655)"/>
        <path stroke-width=".447" d="M157.118 319.67L157.118 319.67" transform="rotate(-2 1434.269 -12.655)"/>
        <path stroke-dasharray="0 7.998" stroke-width=".447" d="M162.662 322.512c27.692 15.036 39.956 47.264 67.59 61.459 14.493 7.445 31.032 7.135 46.903 6.458 39.028-1.667 78.467-4.678 117.12-7.834 26.549-2.167 58.633-2.611 83.628-13.722 8.59-3.819 14.527-10.891 22.882-14.805 17.584-8.24 41.987-8.188 60.837-11.233 50.055-8.087 102.832-9.097 151.965-20.917 64.232-15.452 105.159-64.355 158.208-97.118 30.699-18.96 66.863-18.946 102.532-17.713 37.22 1.286 74.363 3.922 111.624 3.835 67.232-.157 153.91-2.083 213.333-38.054 47.203-28.574 85.21-80.986 103.152-132.839" transform="rotate(-2 1434.269 -12.655)"/>
        <path stroke-width=".447" d="M1403.667 36.218L1403.667 36.218" transform="rotate(-2 1434.269 -12.655)"/>
        <path stroke-width=".472" d="M158.342 321.362L158.342 321.362" transform="rotate(-2 1434.269 -12.655)"/>
        <path stroke-dasharray="0 7.998" stroke-width=".472" d="M163.746 324.51c25.717 15.91 37.17 48.151 64.379 61.445 13.776 6.732 29.656 6.245 44.578 5.492 39.772-2.012 79.787-5.163 119.309-7.855 27.34-1.861 59.663-1.686 85.82-11.626 9.582-3.642 14.536-10.555 22.978-15.266 15.697-8.757 39.397-8.404 56.618-11.08 48.64-7.553 99.836-8.55 147.694-19.425C770.877 311.252 811.8 261.4 865.51 227.707c30.187-18.938 65.82-19.175 101.042-17.879 38.23 1.409 76.38 4.358 114.657 4.345 69.325-.026 154.147-3.197 216.669-36.913 48.297-26.046 86.793-81.615 104.558-132.865" transform="rotate(-2 1434.269 -12.655)"/>
        <path stroke-width=".472" d="M1403.667 40.584L1403.667 40.584" transform="rotate(-2 1434.269 -12.655)"/>
        <path stroke-width=".496" d="M159.484 323.237L159.484 323.237" transform="rotate(-2 1434.269 -12.655)"/>
        <path stroke-dasharray="0 7.998" stroke-width=".496" d="M164.734 326.72c23.738 16.63 34.412 48.638 61.17 61.052 13.657 6.336 29.491 5.467 44.118 4.564 39.888-2.463 79.832-5.667 119.605-7.923 28.123-1.595 59.887-1.18 87.227-9.431 11.09-3.347 14.827-9.536 23.605-15.22 14.288-9.25 36.657-8.918 52.859-11.345 48.125-7.208 98.837-7.855 146.153-18.655 65.802-15.02 106.22-65.176 159.717-99.156 29.656-18.838 64.892-19.363 99.646-18.036 37.56 1.434 75.028 4.55 112.634 4.818 73.025.519 157.267-3.871 224.363-35.756 49.726-23.63 88.874-81.722 106.605-132.872" transform="rotate(-2 1434.269 -12.655)"/>
        <path stroke-width=".496" d="M1403.667 44.95L1403.667 44.95" transform="rotate(-2 1434.269 -12.655)"/>
        <path stroke-width=".521" d="M160.533 325.312L160.533 325.312" transform="rotate(-2 1434.269 -12.655)"/>
        <path stroke-dasharray="0 7.998" stroke-width=".521" d="M165.617 329.161c21.646 17.304 31.761 48.731 57.994 60.28 14.123 6.216 30.54 4.731 45.494 3.605 39.38-2.966 78.635-6.107 118.03-7.97 28.876-1.366 60.2-.845 88.584-7.436 12.465-2.895 15.37-8.092 24.514-14.595 13.427-9.55 33.203-9.505 49.033-11.805 47.561-6.912 97.711-7.204 144.447-17.927 65.852-15.11 105.816-65.599 159.15-99.81 57.354-36.79 143.346-13.859 208.89-12.935 75.963 1.071 160.462-4.298 231.147-34.626 51.708-22.186 91.444-80.63 109.536-132.818" transform="rotate(-2 1434.269 -12.655)"/>
        <path stroke-width=".521" d="M1403.667 49.316L1403.667 49.316" transform="rotate(-2 1434.269 -12.655)"/>
        <path stroke-width=".546" d="M161.483 327.606L161.483 327.606" transform="rotate(-2 1434.269 -12.655)"/>
        <path stroke-dasharray="0 7.998" stroke-width=".546" d="M166.388 331.848c19.523 17.832 29.213 48.505 54.828 59.201 14.052 5.868 30.437 4.1 45.178 2.835 39.438-3.378 78.582-6.705 118.157-8.28 34.497-1.375 87.29 5.714 114.775-17.8 12.83-10.977 29.216-11.319 46.02-13.71 47.91-6.82 98.44-6.487 145.353-17.997 64.453-15.815 103.528-65.856 155.864-99.689 57.621-37.25 144.22-13.672 210.217-12.612 76.88 1.236 160.396-5.128 232.612-33.557 54.122-21.307 94.338-78.799 113.044-132.75" transform="rotate(-2 1434.269 -12.655)"/>
        <path stroke-width=".546" d="M1403.667 53.681L1403.667 53.681" transform="rotate(-2 1434.269 -12.655)"/>
        <path stroke-width=".57" d="M162.324 330.135L162.324 330.135" transform="rotate(-2 1434.269 -12.655)"/>
        <path stroke-dasharray="0 7.998" stroke-width=".57" d="M167.04 334.801c17.39 18.182 26.834 47.894 51.683 57.81 13.44 5.362 29.071 3.587 43.087 2.307 40.092-3.663 79.821-7.526 120.078-8.903 30.474-1.042 61.647-.743 92.015-4.124 11.427-1.272 17.366-3.216 25.617-10.139 12.868-10.798 23.881-12.212 41.946-14.755 47.27-6.654 97.066-5.94 143.344-17.372 64.501-15.934 103.236-66.354 155.514-100.3 57.943-37.624 145.025-13.425 211.394-12.26 77.664 1.362 159.901-6.026 233.393-32.587 56.997-20.6 97.84-76.309 117.325-132.624" transform="rotate(-2 1434.269 -12.655)"/>
        <path stroke-width=".57" d="M1403.667 58.047L1403.667 58.047" transform="rotate(-2 1434.269 -12.655)"/>
        <path stroke-width=".595" d="M163.05 332.919L163.05 332.919" transform="rotate(-2 1434.269 -12.655)"/>
        <path stroke-dasharray="0 7.998" stroke-width=".595" d="M167.561 338.036c15.312 18.352 24.642 46.91 48.64 56.036 13.423 5.104 29.03 3.14 42.93 1.738 40.092-4.044 79.776-8.258 120.03-9.477 31.221-.945 62.896-.604 94.143-2.735 10.85-.74 18.408-1.298 26.538-8.155 4.52-3.814 4.063-7.395 10.464-10.433 7.844-3.722 18.904-3.863 27.337-5.054 47.565-6.714 97.82-5.25 144.238-17.479 62.661-16.508 101.206-66.963 152.293-100.214 57.236-37.253 142.425-13.647 207.971-12.023 79.356 1.966 162.668-5.916 238.172-31.534 60.172-20.416 101.627-73.275 122.12-132.488" transform="rotate(-2 1434.269 -12.655)"/>
        <path stroke-width=".595" d="M1403.667 62.412L1403.667 62.412" transform="rotate(-2 1434.269 -12.655)"/>
        <path stroke-width=".62" d="M163.651 335.974L163.651 335.974" transform="rotate(-2 1434.269 -12.655)"/>
        <path stroke-dasharray="0 7.998" stroke-width=".62" d="M167.947 341.572c13.248 18.361 22.71 45.58 45.725 53.877 13.962 5.036 30.177 2.75 44.5 1.116 39.494-4.507 78.566-8.87 118.212-9.988 31.633-.89 63.559-.649 95.315-1.459 8.928-.226 20.578.772 27.788-5.62 4.249-3.767 3.64-8.017 9.205-11.387 6.653-4.027 17.888-4.07 25.319-5.137 46.856-6.724 96.213-4.827 141.967-16.976 62.708-16.65 101.034-67.522 152.169-100.77 56.67-36.846 139.822-13.805 204.625-11.82 80.903 2.48 164.714-5.996 242.087-30.524 45.69-14.485 74.43-37.793 100.146-77.414 11.126-17.142 20.722-35.55 27.43-54.888" transform="rotate(-2 1434.269 -12.655)"/>
        <path stroke-width=".62" d="M1403.667 66.778L1403.667 66.778" transform="rotate(-2 1434.269 -12.655)"/>
        <path stroke-width=".644" d="M164.121 339.318L164.121 339.318" transform="rotate(-2 1434.269 -12.655)"/>
        <path stroke-dasharray="0 7.998" stroke-width=".644" d="M168.188 345.426c11.128 18.175 21.132 43.87 42.893 51.403 13.995 4.844 30.209 2.474 44.494.721 39.44-4.837 78.405-9.688 117.996-10.78 32.315-.892 64.904-.661 97.4-.365 8.365.076 21.549 2.145 28.502-3.646 3.51-2.923 2.85-7.77 6.714-10.793 5.968-4.67 17.329-4.856 24.409-5.906 45.023-6.673 92.339-4.62 136.493-15.748 64.532-16.266 102.837-68.154 155.185-102.084 57.128-37.029 140.349-13.605 205.638-11.513 80.605 2.583 163.685-6.35 241.042-29.66 47.816-14.41 78.542-35.114 105.584-76.52 11.326-17.34 21.098-35.989 27.899-55.59" transform="rotate(-2 1434.269 -12.655)"/>
        <path stroke-width=".644" d="M1403.667 71.143L1403.667 71.143" transform="rotate(-2 1434.269 -12.655)"/>
        <path stroke-width=".669" d="M164.45 342.968L164.45 342.968" transform="rotate(-2 1434.269 -12.655)"/>
        <path stroke-dasharray="0 7.998" stroke-width=".669" d="M168.276 349.616c9.678 17.762 19.481 41.584 40.158 48.601 13.361 4.536 28.993 2.373 42.619.666 40.101-5.024 79.441-10.793 119.682-11.953 32.628-.94 65.607-.808 98.455.541 8.099.334 22.651 3.464 29.819-1.406 3.947-2.683 2.645-7.671 6.136-10.611 5.616-4.73 15.285-5.125 22.144-6.225 44.248-7.085 90.515-4.315 134.009-15.375 64.586-16.422 102.787-68.776 155.288-102.583 57.155-36.805 139.237-13.601 204.439-11.278 80.841 2.88 163.676-6.5 241.499-28.804 27.653-7.925 59.943-16.945 81.434-37.203 11.81-11.133 21.741-25.564 30.58-39.105 11.319-17.34 21.097-35.977 27.898-55.572" transform="rotate(-2 1434.269 -12.655)"/>
        <path stroke-width=".669" d="M1403.667 75.508L1403.667 75.508" transform="rotate(-2 1434.269 -12.655)"/>
        <path stroke-width=".694" d="M164.631 346.944L164.631 346.944" transform="rotate(-2 1434.269 -12.655)"/>
        <path stroke-dasharray="0 7.998" stroke-width=".694" d="M168.156 353.865c8.936 17.243 17.74 39.125 37.666 45.707 13.443 4.44 29.099 2.296 42.77.49 40.005-5.288 79.162-11.72 119.3-12.985 31.859-1.002 64.235-1.075 96.332 1.046 8.278.548 26.948 5.529 34.727.666 4.109-2.568 2.489-7.234 5.785-10.123 5.094-4.464 13.025-5.082 19.37-6.18 42.415-7.344 86.437-4.214 128.36-14.296 66.637-16.022 104.769-69.43 158.648-103.83 57.684-36.828 139.537-13.329 205.259-10.973 80.219 2.875 161.832-6.969 239.253-28.099 28.916-7.892 63.609-16.718 87.123-36.464 12.93-10.859 23.143-26.25 32.275-40.34 11.098-17.128 20.707-35.5 27.412-54.81" transform="rotate(-2 1434.269 -12.655)"/>
        <path stroke-width=".694" d="M1403.667 79.873L1403.667 79.873" transform="rotate(-2 1434.269 -12.655)"/>
        <path stroke-width=".718" d="M164.649 351.221L164.649 351.221" transform="rotate(-2 1434.269 -12.655)"/>
        <path stroke-dasharray="0 7.998" stroke-width=".718" d="M167.792 357.852c8.262 16.851 16.183 36.856 35.478 43.06 14.209 4.567 30.522 2.223 44.923.13 39.154-5.693 77.564-12.39 116.865-13.805 32.065-1.156 64.81-1.24 97.143 1.496 7.943.672 28.643 6.89 36.202 2.683 4.455-2.479 2.445-6.047 5.619-8.93 4.932-4.48 10.662-5.328 17.179-6.647 41.382-8.378 84.569-4.075 125.713-14.067 66.68-16.192 104.848-70.117 158.978-104.265 57.314-36.156 136.888-13.635 202.008-10.856 80.59 3.441 162.552-6.747 240.486-27.26 31.477-8.287 67.793-17.403 94.302-37.337 13.61-10.235 23.67-25.748 32.808-39.947 10.887-16.916 20.33-35.035 26.94-54.07" transform="rotate(-2 1434.269 -12.655)"/>
        <path stroke-width=".718" d="M1403.667 84.239L1403.667 84.239" transform="rotate(-2 1434.269 -12.655)"/>
        <path stroke-width=".743" d="M164.434 355.363L164.434 355.363" transform="rotate(-2 1434.269 -12.655)"/>
        <path stroke-dasharray="0 7.998" stroke-width=".743" d="M167.197 361.594c7.616 16.54 14.77 34.754 33.497 40.714 14.343 4.567 30.702 2.344 45.228.146 39.006-5.901 77.177-13.386 116.32-15.028 32.245-1.352 65.329-1.47 97.867 1.76 8.4.834 29.619 8.03 37.69 4.502 8.955-3.913 7.688-11.361 20.725-14.39 40.226-9.346 82.742-4.045 122.996-13.92 66.723-16.368 104.997-70.825 159.429-104.661 56.994-35.43 134.347-13.848 198.893-10.771 80.802 3.85 162.615-6.672 240.903-26.495 53.809-13.626 103.236-28.254 134.279-76.26 11.078-17.132 20.705-35.484 27.412-54.79" transform="rotate(-2 1434.269 -12.655)"/>
        <path stroke-width=".743" d="M1403.667 88.603L1403.667 88.603" transform="rotate(-2 1434.269 -12.655)"/>
        <path stroke-width=".768" d="M163.982 359.25L163.982 359.25" transform="rotate(-2 1434.269 -12.655)"/>
        <path stroke-dasharray="0 7.998" stroke-width=".768" d="M166.384 365.102c7 16.323 13.54 32.843 31.77 38.648 14.499 4.616 30.924 2.566 45.614.268 38.833-6.077 76.742-14.425 115.695-16.351 31.286-1.546 63.574-1.776 95.203 1.465 11.7 1.199 28.989 7.913 40.599 6.226 10.032-1.458 9.246-9.06 20.904-12.478 39.434-11.562 83.128-4.161 123.104-14.725 65.223-17.237 103.213-71.242 157.045-104.158 57.143-34.94 133.216-13.882 197.74-10.626 80.098 4.042 161.05-6.788 238.76-25.865 54.164-13.298 110.608-27.01 142.206-75.947 11.068-17.141 20.702-35.487 27.412-54.795" transform="rotate(-2 1434.269 -12.655)"/>
        <path stroke-width=".768" d="M1403.667 92.969L1403.667 92.969" transform="rotate(-2 1434.269 -12.655)"/>
        <path stroke-width=".792" d="M163.303 362.897L163.303 362.897" transform="rotate(-2 1434.269 -12.655)"/>
        <path stroke-dasharray="0 7.998" stroke-width=".792" d="M165.365 368.391c6.39 16.221 12.52 31.035 30.247 36.882 15.252 5.03 32.643 2.71 48.08.18 37.973-6.223 74.98-15.23 113.04-17.473 31.36-1.847 63.901-2.148 95.664 1.323 13.374 1.462 28.765 7.571 42.031 7.471 11.708-.088 7.85-5.548 19.581-10.195 11.728-4.644 27.611-3.975 39.964-5.006 26.94-2.25 54.04-2.746 80.305-9.759 65.261-17.423 103.524-71.957 157.754-104.46 58.741-35.209 135.946-13.213 202.017-10.237 77.342 3.483 155.5-7.566 230.588-25.559 53.61-12.847 118.135-25.85 149.938-74.92 11.25-17.356 21.056-35.938 27.862-55.51" transform="rotate(-2 1434.269 -12.655)"/>
        <path stroke-width=".792" d="M1403.667 97.334L1403.667 97.334" transform="rotate(-2 1434.269 -12.655)"/>
        <path stroke-width=".817" d="M162.411 366.318L162.411 366.318" transform="rotate(-2 1434.269 -12.655)"/>
        <path stroke-dasharray="0 7.998" stroke-width=".817" d="M164.154 371.475c5.736 16.155 11.734 29.56 29.031 35.371 15.454 5.193 32.946 3.16 48.631.521 37.752-6.353 74.445-16.342 112.25-18.98 31.403-2.19 64.15-2.597 96.024 1.01 14.802 1.673 28.911 6.467 43.451 8.527 13.69 1.941 6.463-1.564 18.594-7.512 10.411-5.103 26.773-4.166 37.997-5.119 26.652-2.264 53.421-2.774 79.397-9.78 65.301-17.616 103.916-72.679 158.59-104.718 58.493-34.278 133.455-13.497 198.982-10.225 76.87 3.838 154.405-7.546 229.107-24.993 53.768-12.558 126.752-25.39 158.833-75.278 11.036-17.16 20.68-35.5 27.395-54.808" transform="rotate(-2 1434.269 -12.655)"/>
        <path stroke-width=".817" d="M1403.667 101.699L1403.667 101.699" transform="rotate(-2 1434.269 -12.655)"/>
        <path stroke-width=".842" d="M161.319 369.526L161.319 369.526" transform="rotate(-2 1434.269 -12.655)"/>
        <path stroke-dasharray="0 7.998" stroke-width=".842" d="M162.764 374.367c5.085 16.067 11.138 28.428 28.071 34.143 15.76 5.32 33.211 3.735 49.264.976 37.505-6.448 73.874-17.494 111.378-20.578 47.975-3.947 94.65-1.798 141.953 10.216 13.81 3.507 5.857 1.577 17.062-4.75 9.652-5.449 26.582-4.469 36.98-5.376 27.113-2.36 54.331-2.892 80.68-10.51 63.433-18.342 102.557-73.327 156.461-104.16C843.3 240.76 916.908 260.78 982.404 264.17c75.561 3.911 151.737-7.738 225.21-24.574 53.276-12.208 135.165-25.039 167.427-74.905 11.077-17.12 20.684-35.546 27.395-54.836" transform="rotate(-2 1434.269 -12.655)"/>
        <path stroke-width=".842" d="M1403.667 106.064L1403.667 106.064" transform="rotate(-2 1434.269 -12.655)"/>
        <path stroke-width=".866" d="M160.039 372.535L160.039 372.535" transform="rotate(-2 1434.269 -12.655)"/>
        <path stroke-dasharray="0 7.998" stroke-width=".866" d="M161.207 377.082c4.45 16.123 10.785 27.396 27.368 33.2 15.99 5.595 33.603 4.41 49.978 1.548 37.237-6.51 73.264-18.677 110.427-22.267 44.9-4.337 99.551-7.323 143.532 10.298 14.878 5.96 5.773 3.396 16.737-1.363 34.235-14.855 78.775-5.73 114.725-16.23 63.514-18.553 103.112-74.003 157.571-104.308 58.461-32.531 130.057-13.846 195.018-10.212 74.587 4.172 149.767-7.75 222.322-24.127 39.08-8.822 78.31-19.07 115.56-33.987 23.43-9.383 46.7-19.781 61.051-41.253 11.122-16.64 20.348-35.25 26.94-54.161" transform="rotate(-2 1434.269 -12.655)"/>
        <path stroke-width=".866" d="M1403.667 110.429L1403.667 110.429" transform="rotate(-2 1434.269 -12.655)"/>
        <path stroke-width=".891" d="M158.585 375.359L158.585 375.359" transform="rotate(-2 1434.269 -12.655)"/>
        <path stroke-dasharray="0 7.998" stroke-width=".891" d="M159.496 379.632c3.792 16.224 10.683 26.615 26.922 32.541 16.233 5.925 34.038 5.202 50.775 2.241 36.946-6.535 72.622-19.89 109.396-24.04 44.183-4.985 101.79-9.216 144.97 10.021 2.41 1.074 9.493 6.94 12.186 6.844 1.973-.069 2.188-3.989 4.605-4.458 36.626-7.114 75.84-6.078 111.782-16.684 63.607-18.769 103.753-74.666 158.816-104.4 58.68-31.686 129.043-13.906 193.955-10.209 72.855 4.15 146.28-8.044 217.158-23.859 39.842-8.89 79.713-19.224 117.927-33.714 24.051-9.12 51.903-19.549 67.508-41.127 11.57-15.997 20.446-35.576 26.94-54.204" transform="rotate(-2 1434.269 -12.655)"/>
        <path stroke-width=".891" d="M1403.667 114.795L1403.667 114.795" transform="rotate(-2 1434.269 -12.655)"/>
        <path stroke-width=".915" d="M156.969 378.01L156.969 378.01" transform="rotate(-2 1434.269 -12.655)"/>
        <path stroke-dasharray="0 7.998" stroke-width=".915" d="M157.644 382.032c3 16.357 10.926 26.129 26.733 32.172 16.488 6.304 34.517 6.107 51.654 3.054 36.635-6.528 71.954-21.138 108.288-25.896 44.003-5.763 103.208-10.662 146.258 9.388 9.562 4.454 10.506 6.726 17.256 6.474 9.25-.343 21.16-5.379 30.944-6.389 26.196-2.705 52.424-3.266 77.88-10.854 63.716-18.991 104.48-75.308 160.195-104.433 58.882-30.781 128.093-13.966 192.938-10.24 70.924 4.075 142.408-8.398 211.4-23.674 40.455-8.958 80.857-19.354 119.86-33.451 24.832-8.976 56.995-19.493 74.245-40.972 12.158-15.139 20.761-35.966 27.141-54.262" transform="rotate(-2 1434.269 -12.655)"/>
        <path stroke-width=".915" d="M1403.667 119.16L1403.667 119.16" transform="rotate(-2 1434.269 -12.655)"/>
        <path stroke-width=".94" d="M155.205 380.504L155.205 380.504" transform="rotate(-2 1434.269 -12.655)"/>
        <path stroke-dasharray="0 7.998" stroke-width=".94" d="M155.664 384.295c2.291 16.525 11.36 25.89 26.802 32.093 16.751 6.727 35.04 7.13 52.616 3.99 36.306-6.485 71.267-22.422 107.102-27.831 43.652-6.59 105.664-12.642 148.392 8.867 7.001 3.525 11.7 9.14 17.706 9.828 5.7.654 18.984-5.176 25.641-5.985 25.706-3.122 51.462-3.316 76.561-10.428 65.37-18.523 107.501-76.35 164.805-105.31 59.025-29.83 127.215-14.02 191.973-10.307 68.797 3.943 138.154-8.816 205.05-23.572 40.926-9.028 81.74-19.468 121.362-33.202 26.46-9.171 60.725-19.615 80.554-40.808 13.278-14.191 21.832-36.033 28.208-54.316" transform="rotate(-2 1434.269 -12.655)"/>
        <path stroke-width=".94" d="M1403.667 123.526L1403.667 123.526" transform="rotate(-2 1434.269 -12.655)"/>
        <path stroke-width=".965" d="M153.304 382.853L153.304 382.853" transform="rotate(-2 1434.269 -12.655)"/>
        <path stroke-dasharray="0 7.998" stroke-width=".965" d="M153.569 386.435c1.575 16.72 12.06 25.936 27.13 32.304 51.135 21.61 110.841-16.36 159.498-24.789 43.57-7.548 106.495-14.195 149.4 7.556 6.533 3.312 13.084 12.326 19.206 13.3 5.423.862 17.521-4.51 23.49-5.312 25.357-3.409 50.774-3.558 75.558-10.655 65.514-18.758 108.388-76.957 166.44-105.223 58.965-28.71 125.371-14.234 189.737-10.49 66.956 3.894 134.386-9.13 199.457-23.489 42.336-9.34 84.539-20.093 125.617-34.028 27.7-9.398 59.641-19.539 82.301-38.868 15.588-13.297 24.365-35.94 31.034-55.062" transform="rotate(-2 1434.269 -12.655)"/>
        <path stroke-width=".965" d="M1403.667 127.891L1403.667 127.891" transform="rotate(-2 1434.269 -12.655)"/>
        <path stroke-width=".989" d="M151.28 385.071L151.28 385.071" transform="rotate(-2 1434.269 -12.655)"/>
        <path stroke-dasharray="0 7.998" stroke-width=".989" d="M151.37 388.466c.866 16.927 13.015 26.295 27.716 32.81 52.295 23.172 109.833-15.9 159.287-25.683 43.842-8.673 106.65-15.58 150.226 5.89 7.588 3.739 13.97 14.338 20.844 16.432 4.823 1.469 16.678-3.311 21.668-4.076 24.997-3.828 50.076-3.837 74.562-10.92 65.688-19.003 109.412-77.65 168.216-105.07 60.12-28.034 123.725-14.302 188.964-10.63 64.416 3.629 129.334-9.708 191.88-23.57 42.545-9.427 84.924-20.202 126.343-33.8 29.6-9.718 62.04-20.073 87.455-38.713 17.882-13.114 26.76-34.604 33.905-55.091" transform="rotate(-2 1434.269 -12.655)"/>
        <path stroke-width=".989" d="M1403.667 132.257L1403.667 132.257" transform="rotate(-2 1434.269 -12.655)"/>
        <path stroke-width="1.014" d="M149.145 387.172L149.145 387.172" transform="rotate(-2 1434.269 -12.655)"/>
        <path stroke-dasharray="0 7.998" stroke-width="1.014" d="M149.083 390.4c.045 17.153 14.331 26.966 28.56 33.611 53.503 24.99 108.805-15.2 159.084-26.516 43.933-9.89 105.41-16.774 149.692 3.348 9.626 4.374 15.554 16.568 23.737 19.775 5.86 2.297 17.116-1.913 22.708-2.69 24.89-3.453 49.961-4.275 74.152-11.772 64.21-19.9 108.423-76.443 166.852-104.104 61.218-28.98 122.854-14.506 188.508-10.636 61.553 3.627 124.08-10.412 183.735-23.748 71.877-16.067 155.831-31.688 218.786-72.148 20.5-13.175 29.763-32.81 37.54-55.109" transform="rotate(-2 1434.269 -12.655)"/>
        <path stroke-width="1.014" d="M1403.667 136.623L1403.667 136.623" transform="rotate(-2 1434.269 -12.655)"/>
        <path stroke-width="1.039" d="M146.913 389.169L146.913 389.169" transform="rotate(-2 1434.269 -12.655)"/>
        <path stroke-dasharray="0 7.998" stroke-width="1.039" d="M146.709 392.254c-.47 17.453 15.745 27.874 29.736 34.698 54.808 26.734 107.603-14.25 158.827-27.274 43.768-11.13 105.395-18.67 150.072.975 8.077 3.55 13.739 7.899 19.626 14.143 2.327 2.469 2.826 6.46 6.05 8.097 5.809 2.946 16.116-.048 21.925-.681 24.435-2.662 49.312-4.46 72.875-11.831 64.197-20.08 109.995-76.04 168.212-104.577 61.427-30.111 122.303-15.277 188.187-10.267 58.349 4.437 119.06-11.072 175.439-23.841 73.99-16.758 156.532-33.317 222.89-71.801 23.099-13.396 33.4-30.778 41.888-55.117" transform="rotate(-2 1434.269 -12.655)"/>
        <path stroke-width="1.039" d="M1403.667 140.989L1403.667 140.989" transform="rotate(-2 1434.269 -12.655)"/>
        <path stroke-width="1.063" d="M144.597 391.076L144.597 391.076" transform="rotate(-2 1434.269 -12.655)"/>
        <path stroke-dasharray="0 7.998" stroke-width="1.063" d="M144.291 394.039c-.99 17.796 17.358 29.032 31.09 36.098 55.307 28.456 107.208-13.225 158.641-27.975 43.49-12.473 105.154-20.727 150.24-1.738 8.345 3.514 15.1 7.936 20.963 14.73 2.433 2.819 3.46 7.585 6.76 9.633 5.833 3.622 15.327 1.565 21.56 1.156 24.03-1.581 48.596-3.988 71.624-11.256 64.465-20.344 111.077-76.166 169.206-105.573 61.227-30.975 122.126-16.77 187.923-9.782 55.013 5.842 114.122-11.377 167.12-23.597 75.537-17.416 157.123-34.814 226.114-71.475 25.378-13.486 37.737-28.821 46.904-55.116" transform="rotate(-2 1434.269 -12.655)"/>
        <path stroke-width="1.063" d="M1403.667 145.356L1403.667 145.356" transform="rotate(-2 1434.269 -12.655)"/>
        <path stroke-width="1.088" d="M142.208 392.907L142.208 392.907" transform="rotate(-2 1434.269 -12.655)"/>
        <path stroke-dasharray="0 7.998" stroke-width="1.088" d="M141.812 395.77c-1.391 18.14 19.073 30.463 32.649 37.807 54.97 29.736 107.463-12.156 158.532-28.609 42.893-13.818 103.457-22.563 148.868-5.285 8.736 3.323 16.867 7.732 23.029 14.88 2.975 3.451 4.45 9.045 8.182 11.744 5.73 4.144 14.086 3.035 20.723 2.886 22.896-.517 46.44-2.868 68.418-9.389 66.433-19.71 113.63-77.08 172.675-107.797 61.6-32.046 122.82-17.773 189.024-9.002 51.502 6.824 107.973-11.526 157.504-23.209 77.054-18.174 158.655-36.349 229.928-71.875 26.458-13.187 41.559-27.063 51.093-54.409" transform="rotate(-2 1434.269 -12.655)"/>
        <path stroke-width="1.088" d="M1403.667 149.722L1403.667 149.722" transform="rotate(-2 1434.269 -12.655)"/>
        <path stroke-width="1.113" d="M139.76 394.675L139.76 394.675" transform="rotate(-2 1434.269 -12.655)"/>
        <path stroke-dasharray="0 7.998" stroke-width="1.113" d="M139.295 397.459c-1.662 18.6 20.997 32.142 34.532 39.81 53.7 30.428 108.439-11.114 158.37-29.151 42.377-15.306 102.768-24.957 148.534-8.657 9.122 3.249 17.89 7.695 24.369 15.059 3.327 3.782 5.119 9.935 9.114 13 19.355 14.857 69.158 1.739 88.34-3.836 66.844-19.431 114.11-77.725 173.006-109.175 61.45-32.815 123.097-19.151 189.174-8.227 48.657 8.043 102.237-11.071 149-22.417 77.733-18.86 158.693-37.624 231.486-71.593 27.462-12.814 47.218-25.698 57.217-54.392" transform="rotate(-2 1434.269 -12.655)"/>
        <path stroke-width="1.113" d="M1403.667 154.089L1403.667 154.089" transform="rotate(-2 1434.269 -12.655)"/>
        <path stroke-width="1.137" d="M137.267 396.393L137.267 396.393" transform="rotate(-2 1434.269 -12.655)"/>
        <path stroke-dasharray="0 7.998" stroke-width="1.137" d="M136.752 399.122c-1.789 19.328 23.122 33.833 36.732 42.11 17.63 10.722 32.39 16.425 53.224 11.587 36.093-8.38 71.981-27.896 104.942-41.186 41.788-16.85 101.854-27.54 147.958-12.356 19.673 6.479 22.251 17.507 35.827 29.156 19.07 16.362 68.045 4.244 87.744-1.37 67.188-19.14 114.497-78.315 173.201-110.42 61.33-33.541 123.601-20.433 189.528-7.34 46.221 9.18 96.037-10.193 140.49-21.351 78.012-19.582 158.333-38.797 232.163-71.336 27.743-12.228 53.555-24.738 63.875-54.367" transform="rotate(-2 1434.269 -12.655)"/>
        <path stroke-width="1.137" d="M1403.667 158.456L1403.667 158.456" transform="rotate(-2 1434.269 -12.655)"/>
        <path stroke-width="1.162" d="M134.739 398.077L134.739 398.077" transform="rotate(-2 1434.269 -12.655)"/>
        <path stroke-dasharray="0 7.998" stroke-width="1.162" d="M134.197 400.771c-1.786 20.26 25.249 35.498 39.08 44.732 16.533 11.04 29.359 16.384 49.396 11.7 36.877-8.624 74.683-27.13 108.693-41.672 42.194-18.04 100.71-30.315 147.13-16.377 20.794 6.243 24.067 17.323 38.234 29.911 19.574 17.392 66.353 6.772 87.347.908 67.465-18.844 114.787-78.854 173.265-111.539 61.246-34.232 124.31-21.596 190.07-6.347 44.243 10.26 89.4-8.886 132.039-20.028 77.914-20.362 157.53-39.884 231.963-71.107 26.71-11.205 61.386-24.235 71.022-54.334" transform="rotate(-2 1434.269 -12.655)"/>
        <path stroke-width="1.162" d="M1403.667 162.823L1403.667 162.823" transform="rotate(-2 1434.269 -12.655)"/>
        <path stroke-width="1.187" d="M132.192 399.739L132.192 399.739" transform="rotate(-2 1434.269 -12.655)"/>
        <path stroke-dasharray="0 7.998" stroke-width="1.187" d="M131.642 402.42c-1.529 21.02 27.294 37.448 41.201 47.855 15.74 11.78 27.562 15.996 47.185 10.909 37.628-9.754 76.12-26.757 111.346-41.571 43.304-18.211 102.802-34.505 150.334-19.275 18.387 5.892 23.635 17.325 36.362 29.126 19.174 17.779 62.21 9.497 84.436 3.809 69.064-17.674 116.947-79.763 175.926-113.366 61.24-34.891 125.204-22.616 190.795-5.257 42.738 11.31 82.383-7.14 123.71-18.461 77.45-21.22 156.247-40.905 230.888-70.906 24.861-9.993 70.062-24.396 78.611-54.295" transform="rotate(-2 1434.269 -12.655)"/>
        <path stroke-width="1.187" d="M1403.667 167.191L1403.667 167.191" transform="rotate(-2 1434.269 -12.655)"/>
        <path stroke-width="1.211" d="M129.636 401.392L129.636 401.392" transform="rotate(-2 1434.269 -12.655)"/>
        <path stroke-dasharray="0 7.998" stroke-width="1.211" d="M129.1 404.085c-1.056 21.61 28.862 39.277 42.684 51.109 14.747 12.625 26.293 15.345 45.253 9.922 38.51-11.014 77.25-27.8 114.172-41.786 44.956-17.03 100.14-37.162 149.542-23.036 19.2 5.49 25.59 16.81 38.743 29.324 19.507 18.56 61.297 11.477 84.417 5.688 69.22-17.334 117.056-80.181 175.73-114.221 61.26-35.54 126.26-23.476 191.688-4.081 41.692 12.359 75.096-4.946 115.57-16.66 76.624-22.177 154.464-41.878 228.944-70.737 25.83-10.008 75.177-24.557 86.593-54.248" transform="rotate(-2 1434.269 -12.655)"/>
        <path stroke-width="1.211" d="M1403.667 171.559L1403.667 171.559" transform="rotate(-2 1434.269 -12.655)"/>
        <path stroke-width="1.236" d="M127.086 403.051L127.086 403.051" transform="rotate(-2 1434.269 -12.655)"/>
        <path stroke-dasharray="0 7.998" stroke-width="1.236" d="M126.576 405.777c-.633 21.77 30.055 41.466 43.587 54.426 13.82 13.235 25.262 14.714 43.56 8.8 39.374-12.725 78.077-29.149 116.998-42.28 46.502-15.69 98.294-39.04 149.09-26.359 19.924 4.974 27.549 16.153 41.159 29.206 19.958 19.14 60.524 13.273 84.569 7.378 69.32-16.995 117.075-80.542 175.423-114.956 61.896-36.507 128.145-23.79 193.865-2.449 14.406 4.678 28.937 9.748 44.147 6.13 20.992-4.995 41.767-14.773 62.445-21.156 74.783-23.082 150.84-42.513 224.236-69.896 29.866-11.142 78.62-24.918 96.31-54.89" transform="rotate(-2 1434.269 -12.655)"/>
        <path stroke-width="1.236" d="M1403.66 175.928L1403.66 175.928" transform="rotate(-2 1434.269 -12.655)"/>
        <path stroke-width="1.261" d="M124.554 404.729L124.554 404.729" transform="rotate(-2 1434.269 -12.655)"/>
        <path stroke-dasharray="0 7.998" stroke-width="1.261" d="M124.109 407.51c.139 21.992 30.632 43.384 43.902 57.786 12.865 13.964 24.553 13.728 42.105 7.553 40.228-14.152 79.01-30.736 119.81-43.04 47.488-14.322 97.515-40.122 148.966-29.239 20.562 4.35 29.509 15.317 43.601 28.776 20.467 19.55 59.944 14.873 84.885 8.882 69.366-16.66 117.002-80.85 175.002-115.572 62.035-37.139 129.484-24.313 195.07-1.09 13.672 4.84 28.286 11.19 43.045 8.077 18.755-3.955 37.713-14.845 55.971-20.913 73.173-24.316 148.008-43.42 220.515-69.795 33.329-12.123 80.345-25.47 103.602-54.833" transform="rotate(-2 1434.269 -12.655)"/>
        <path stroke-width="1.261" d="M1403.073 180.296L1403.073 180.296" transform="rotate(-2 1434.269 -12.655)"/>
        <path stroke-width="1.285" d="M122.053 406.44L122.053 406.44" transform="rotate(-2 1434.269 -12.655)"/>
        <path stroke-dasharray="0 7.998" stroke-width="1.285" d="M121.685 409.299c.294 7.554 4.492 13.874 8.848 19.796 10.533 14.318 23.57 27.538 34.826 41.375 11.907 14.638 24.156 12.555 40.88 6.186 41.052-15.63 79.974-32.51 122.605-44.051 47.804-12.941 96.445-39.716 147.587-31.91 22.46 3.427 31.91 14.073 47.639 28.267 22.117 19.96 61.69 16.256 88.126 9.523 68.055-17.333 114.655-80.797 171.695-115.388 62.762-38.061 131.64-24.32 197.572.78 13.07 4.977 27.62 12.209 41.979 9.367 16.32-3.23 32.872-14.565 48.638-20.261 70.495-25.472 143.325-44.012 213.995-69.031 36.79-13.026 84.02-26.484 112.265-55.48" transform="rotate(-2 1434.269 -12.655)"/>
        <path stroke-width="1.285" d="M1401.583 184.665L1401.583 184.665" transform="rotate(-2 1434.269 -12.655)"/>
        <path stroke-width="1.31" d="M119.595 408.198L119.595 408.198" transform="rotate(-2 1434.269 -12.655)"/>
        <path stroke-dasharray="0 7.998" stroke-width="1.31" d="M119.325 411.157c.652 8.018 5.279 14.761 10 21.024 10.954 14.535 21.97 29.082 32.912 43.536 11.342 14.983 23.715 11.336 39.88 4.712 41.832-17.14 81.242-34.511 125.374-45.299 47.899-11.709 97.23-39.488 148.04-33.825 23.028 2.567 33.703 12.936 50.133 27.16 23.018 19.924 61.12 17.587 88.73 10.669 68.017-17.042 114.402-80.998 171.085-115.792 61.557-37.786 130.82-25.344 195.488.818 12.866 5.205 28.98 14.754 43.5 12.977 14.653-1.794 30.389-14.457 43.963-19.884 68.552-27.412 140.8-45.284 210.447-69.682 38.79-13.589 84.596-27.188 116.405-54.729" transform="rotate(-2 1434.269 -12.655)"/>
        <path stroke-width="1.31" d="M1399.235 189.033L1399.235 189.033" transform="rotate(-2 1434.269 -12.655)"/>
        <path stroke-width="1.335" d="M117.194 410.015L117.194 410.015" transform="rotate(-2 1434.269 -12.655)"/>
        <path stroke-dasharray="0 7.998" stroke-width="1.335" d="M117.042 413.096c.965 8.5 6.204 15.783 11.268 22.386 11.486 14.98 19.976 30.17 30.367 45.552 10.464 15.49 23.872 9.817 39.103 3.137 42.56-18.666 82.646-36.665 128.104-46.77 31.387-6.978 60.613-17.265 91.301-26.965 17.87-5.65 37.043-9.4 55.876-8.397 24.265 1.291 36.888 11.155 54.212 25.835 24.366 20.647 63.087 18.7 92.146 10.934 66.568-17.79 112.005-80.844 167.72-115.394 62.317-38.644 133.257-25.08 198.26 2.795 12.418 5.325 28.695 15.913 42.864 14.295 12.851-1.468 25.475-13.696 37.121-18.929 66.042-29.678 137.988-46.66 206.266-70.4 40.303-14.015 85.254-27.855 119.808-53.965" transform="rotate(-2 1434.269 -12.655)"/>
        <path stroke-width="1.335" d="M1396.079 193.401L1396.079 193.401" transform="rotate(-2 1434.269 -12.655)"/>
        <path stroke-width="1.359" d="M114.862 411.906L114.862 411.906" transform="rotate(-2 1434.269 -12.655)"/>
        <path stroke-dasharray="0 7.998" stroke-width="1.359" d="M114.85 415.134c1.436 9.061 7.156 16.811 12.652 23.878 6.133 7.885 12.766 14.56 17.465 23.527 3.942 7.524 5.373 16.67 9.744 23.877 9.638 15.897 24.29 8.125 38.54 1.471 43.24-20.192 84.074-38.928 130.791-48.452 31.71-6.464 61.697-14.452 92.462-25.298 17.903-6.313 36.58-11.123 55.705-10.966 24.708.206 38.568 9.536 56.705 24.03 25.348 20.254 62.915 19.668 93.002 11.727 66.445-17.536 111.591-80.937 166.941-115.587 63.261-39.605 135.723-24.523 201.19 4.877 11.817 5.306 28.62 17.12 42.318 15.583 11.128-1.248 21.176-12.909 30.808-17.88 61.336-31.656 132.023-47.375 197.04-69.728 42.705-14.683 88.924-29.014 126.702-54.614" transform="rotate(-2 1434.269 -12.655)"/>
        <path stroke-width="1.359" d="M1392.162 197.768L1392.162 197.768" transform="rotate(-2 1434.269 -12.655)"/>
        <path stroke-width="1.384" d="M112.612 413.885L112.612 413.885" transform="rotate(-2 1434.269 -12.655)"/>
        <path stroke-dasharray="0 7.998" stroke-width="1.384" d="M112.761 417.281c1.911 9.701 8.262 17.86 14.154 25.505 6.357 8.246 11.987 15.126 15.915 24.999 2.971 7.467 3.507 17.165 7.538 24.075 9.29 15.922 24.57 6.456 38.186-.28 43.877-21.709 85.508-41.278 133.43-50.328 31.23-5.899 62.484-11.317 92.833-22.477 18.046-6.636 35.53-13.087 54.962-14.123 25.316-1.35 41.576 7.108 60.8 21.822 25.391 19.44 61.276 20.166 91.406 12.886 67.6-16.335 112.946-81.082 168.641-116.218 63.274-39.917 136.361-24.38 201.623 5.828 11.428 5.29 29.331 18.555 42.672 18.05 10.92-.413 18.076-11.124 26.721-16.696 23.347-15.049 52.477-23.54 78.453-32.606 36.043-12.581 72.43-24.155 108.554-36.495 44.901-15.337 92.365-30.202 133.054-55.277" transform="rotate(-2 1434.269 -12.655)"/>
        <path stroke-width="1.384" d="M1387.532 202.135L1387.532 202.135" transform="rotate(-2 1434.269 -12.655)"/>
        <path stroke-width="1.408" d="M110.458 415.965L110.458 415.965" transform="rotate(-2 1434.269 -12.655)"/>
        <path stroke-dasharray="0 7.998" stroke-width="1.408" d="M110.789 419.551c2.535 10.528 9.578 18.688 15.773 27.266 11.719 16.226 10.32 34.233 19.12 50.54 8.668 16.062 25.386 4.495 38.037-2.106 44.47-23.201 86.935-43.705 136.004-52.385 31.353-5.544 64.078-9.298 94.78-20.23 18.128-6.454 35.107-14.219 54.504-16.215 25.623-2.637 43.097 4.99 63.23 19.31 26.43 18.796 61.505 20.702 92.506 13.303 67.395-16.082 112.384-81.051 167.693-116.19 63.24-40.174 137.043-24.096 202.102 6.733 11.506 5.452 31.693 21.147 45.202 20.572 9.735-.413 14.323-9.75 21.41-15.368 20.299-16.096 48.826-24.411 72.798-33.149 35.534-12.95 71.543-24.565 107.32-36.815 45.42-15.549 92.683-30.606 134.602-54.505" transform="rotate(-2 1434.269 -12.655)"/>
        <path stroke-width="1.408" d="M1382.238 206.501L1382.238 206.501" transform="rotate(-2 1434.269 -12.655)"/>
        <path stroke-width="1.433" d="M108.411 418.158L108.411 418.158" transform="rotate(-2 1434.269 -12.655)"/>
        <path stroke-dasharray="0 7.998" stroke-width="1.433" d="M108.945 421.96c3.117 11.423 11.207 19.505 17.504 29.165 10.712 16.43 6.113 35.773 14.231 51.78 8.148 16.064 26.375 2.42 38.089-3.996 45.03-24.667 88.335-46.191 138.51-54.611 31.326-5.256 64.365-8.055 95.477-17.757 20.312-6.333 38.928-16.294 60.375-18.696 24.176-2.708 41.026 4.418 60.76 17.144 99.686 64.292 187.159-55.753 260.385-102.515 64.835-41.406 140.834-22.766 206.796 9.647 10.894 5.353 29.845 20.724 42.687 20.916 9.447.142 11.742-7.558 18.04-13.721 17.479-17.098 45.089-25.611 67.385-34.135 33.872-12.95 68.363-24.255 102.647-36.048 46.418-15.965 94.118-31.37 137.631-54.454" transform="rotate(-2 1434.269 -12.655)"/>
        <path stroke-width="1.433" d="M1376.327 210.868L1376.327 210.868" transform="rotate(-2 1434.269 -12.655)"/>
        <path stroke-width="1.458" d="M106.486 420.48L106.486 420.48" transform="rotate(-2 1434.269 -12.655)"/>
        <path stroke-dasharray="0 7.998" stroke-width="1.458" d="M107.243 424.52c3.783 12.05 12.834 20.487 18.67 31.381 8.88 16.57 1.95 37.09 9.484 52.597 7.735 15.921 27.504.258 38.335-5.946 45.558-26.094 89.697-48.724 140.939-56.989 31.322-5.052 64.55-7.092 96.06-15.486 20.472-5.453 39.247-15.995 60.156-19.786 24.86-4.509 43.729 1.365 64.663 13.982 103.23 62.217 184.696-53.564 260.586-102.222 64.863-41.586 141.418-22.153 207.259 10.491 10.912 5.41 33.036 23.945 45.765 23.522 8.394-.279 8.966-6.039 14.1-12.266 13.93-16.894 37.178-25.112 56.907-33.21 32.858-13.49 66.619-24.759 100.16-36.397 47.866-16.607 96.788-32.4 142.2-55.147" transform="rotate(-2 1434.269 -12.655)"/>
        <path stroke-width="1.458" d="M1369.847 215.234L1369.847 215.234" transform="rotate(-2 1434.269 -12.655)"/>
        <path stroke-width="1.482" d="M104.693 422.945L104.693 422.945" transform="rotate(-2 1434.269 -12.655)"/>
        <path stroke-dasharray="0 7.998" stroke-width="1.482" d="M105.695 427.245c4.17 11.889 13.366 20.75 18.306 32.146 7.401 17.067-1.365 39.174 5.931 54.619 7.736 16.37 30.37-2.812 40.827-9.095 45.224-27.18 89.931-50.168 141.155-58.234 31.663-4.988 65.545-6.306 97.737-13.683 21.005-4.814 39.856-15.132 60.657-20.105 25.005-5.976 44.979-1.263 66.88 10.717 29.484 16.127 63.29 21.257 96.469 13.582 66.516-15.386 110.227-80.772 164.35-115.588 65.464-42.111 143.16-21.182 209.285 12.045 11.375 5.716 33.493 24.844 46.486 25.056 8.342.136 7.1-3.531 11.647-10.565 11.397-17.637 32.279-25.85 50.9-33.99 32.303-14.12 65.832-25.458 99.068-37.14 46.96-16.505 94.704-32.166 139.721-53.601" transform="rotate(-2 1434.269 -12.655)"/>
        <path stroke-width="1.482" d="M1362.848 219.6L1362.848 219.6" transform="rotate(-2 1434.269 -12.655)"/>
        <path stroke-width="1.507" d="M103.047 425.564L103.047 425.564" transform="rotate(-2 1434.269 -12.655)"/>
        <path stroke-dasharray="0 7.998" stroke-width="1.507" d="M104.316 430.148c4.74 12.231 14.235 21.751 18.08 34.345 4.966 16.266-5.085 40.956 1.789 55.18 7.663 15.856 31.655-5.084 41.482-11.206 45.7-28.472 91.172-52.684 143.36-60.8 31.622-4.919 65.66-5.6 98.1-11.764 21.67-4.117 40.312-12.986 61.064-19.532 25.53-8.053 47.19-4.922 70.61 6.651 31.185 15.41 65.92 21.328 100.343 12.716 64.969-16.253 107.508-80.293 160.734-114.582 66.035-42.542 144.806-20.11 211.24 13.555 12.095 6.128 33.747 25.175 47.497 26.456 8.63.803 5.526-.848 9.599-8.797 8.8-17.173 24.418-24.937 41.436-33.116 29.796-14.319 61.266-25.247 92.346-36.384 48.692-17.449 98.156-33.61 145.277-55.096" transform="rotate(-2 1434.269 -12.655)"/>
        <path stroke-width="1.507" d="M1355.376 223.966L1355.376 223.966" transform="rotate(-2 1434.269 -12.655)"/>
        <path stroke-width="1.532" d="M101.56 428.353L101.56 428.353" transform="rotate(-2 1434.269 -12.655)"/>
        <path stroke-dasharray="0 7.998" stroke-width="1.532" d="M103.116 433.244c5.308 12.8 14.493 22.54 17.08 36.534 2.819 15.255-8.352 42.363-1.95 55.589 7.434 15.352 33.262-7.486 42.32-13.348 46.064-29.806 92.408-55.235 145.46-63.48 54.22-8.427 108.426-8.666 161.714-28.682 25.479-9.57 48.208-8.194 72.653 2.682 32.086 14.275 66.945 20.953 101.852 12.266 64.613-16.082 106.635-79.997 159.494-114.074 66.049-42.58 145.15-19.31 211.585 14.18 11.497 5.796 22.758 12.04 33.83 18.61 4.369 2.593 12.548 10.263 17.62 10.586 8.312.532 3.306.288 6.84-7.64 18.606-41.722 84.246-55.612 123.727-70.048 48.049-17.57 96.842-33.645 143.706-54.281" transform="rotate(-2 1434.269 -12.655)"/>
        <path stroke-width="1.532" d="M1347.478 228.331L1347.478 228.331" transform="rotate(-2 1434.269 -12.655)"/>
        <path stroke-width="1.556" d="M100.246 431.325L100.246 431.325" transform="rotate(-2 1434.269 -12.655)"/>
        <path stroke-dasharray="0 7.998" stroke-width="1.556" d="M102.11 436.547c6.047 13.515 14.108 23.292 15.326 38.69 1.115 14.127-11.346 43.506-5.286 55.85 7.258 14.786 34.957-9.931 43.332-15.513 46.506-30.997 93.502-57.773 147.448-66.257 52.728-8.293 111.03-3.488 162.877-24.826 26.608-10.951 49.31-12.747 76.148-2.298 32.406 12.617 66.25 20.057 101.084 12.097 65.448-14.955 107.335-79.33 160.542-113.936 67.817-44.108 150.11-16.964 217.154 17.435 10.843 5.563 21.489 11.513 31.923 17.804 4.096 2.469 12.604 10.257 17.337 10.79 9.013 1.018 2.38 2.798 5.544-5.89 5.723-15.71 10.103-22.756 25.498-32.092 26.574-16.115 56.763-26.755 85.73-37.652 47.911-18.023 96.603-34.166 143.72-54.247" transform="rotate(-2 1434.269 -12.655)"/>
        <path stroke-width="1.556" d="M1339.206 232.696L1339.206 232.696" transform="rotate(-2 1434.269 -12.655)"/>
        <path stroke-width="1.581" d="M99.116 434.493L99.116 434.493" transform="rotate(-2 1434.269 -12.655)"/>
        <path stroke-dasharray="0 7.998" stroke-width="1.581" d="M101.31 440.07c6.896 14.175 13.075 24.361 12.838 40.791-.188 13.041-14.068 44.322-8.223 55.966 7.117 14.18 36.761-12.383 44.515-17.693 46.932-32.134 94.517-60.303 149.317-69.119 53.15-8.55 114.708-.577 167.296-22.103 26.81-10.975 48.51-15.339 76.414-5.927 32.557 10.98 65.858 19.095 100.484 11.89 66.131-13.764 108.25-79.92 161.443-113.827 58.991-37.602 128.248-22.152 190.097 4.99 29.873 13.108 56.294 33.412 85.557 46.62-6.914-39.536 43.498-54.48 72.67-66.634 55.324-23.052 112.58-41.149 167.923-64.159" transform="rotate(-2 1434.269 -12.655)"/>
        <path stroke-width="1.581" d="M1330.603 237.061L1330.603 237.061" transform="rotate(-2 1434.269 -12.655)"/>
        <path stroke-width="1.606" d="M98.184 437.871L98.184 437.871" transform="rotate(-2 1434.269 -12.655)"/>
        <path stroke-dasharray="0 7.998" stroke-width="1.606" d="M100.728 443.824c7.603 14.572 11.267 26.068 9.643 42.813-1.035 10.666-16.706 46.528-10.768 55.945 8.225 13.046 37.74-14.175 45.864-19.876 47.337-33.22 95.458-62.831 151.057-72.053 53.47-8.867 116.725 1.588 170.193-18.85 27.78-10.616 48.642-18.24 78.22-9.838 33.453 9.502 67.054 18.212 102.161 10.918 65.715-13.654 107.204-79.473 160.07-113.044 89.135-56.605 199.323 4.798 279.924 54.865-14.234-36.335 32.837-53.417 59.3-65.103 54.353-24.002 111.17-41.948 166.165-64.373" transform="rotate(-2 1434.269 -12.655)"/>
        <path stroke-width="1.606" d="M1321.721 241.427L1321.721 241.427" transform="rotate(-2 1434.269 -12.655)"/>
        <path stroke-width="1.63" d="M97.463 441.473L97.463 441.473" transform="rotate(-2 1434.269 -12.655)"/>
        <path stroke-dasharray="0 7.998" stroke-width="1.63" d="M100.379 447.827c8.624 14.478 8.487 30.349 5.412 46.56-1.975 10.408-18.59 44.53-12.692 54.107 7.4 12.017 38.068-15.446 44.613-20.132 49.049-35.108 97.692-67.092 155.536-77.113 53.782-9.317 116.71 2.693 171.35-15.2 29.544-9.675 50.09-21.201 81.759-13.888 35.08 8.103 69.839 17.547 106.167 9.269 64.204-14.632 104.247-78.771 156.369-111.68 87.725-55.385 206.488 4.247 284.642 57.932-23.206-32.923 26.622-54.437 49.89-65.233 51.935-24.1 106.765-41.55 159.859-62.857" transform="rotate(-2 1434.269 -12.655)"/>
        <path stroke-width="1.63" d="M1312.607 245.791L1312.607 245.791" transform="rotate(-2 1434.269 -12.655)"/>
        <path stroke-width="1.655" d="M96.965 445.312L96.965 445.312" transform="rotate(-2 1434.269 -12.655)"/>
        <path stroke-dasharray="0 7.998" stroke-width="1.655" d="M100.268 452.094c7.467 15.118 4.69 32.656.745 48.372-2.197 8.75-20.495 45.822-14.344 53.803 8.534 11.072 39.284-17.149 46.226-22.22 49.43-36.101 98.498-69.623 157.051-80.228 54.58-9.888 117.855 3.714 173.897-12.274 30.154-8.602 51.473-22.776 83.867-16.97 35.873 6.43 71.144 16.356 107.893 7.966 63.743-14.553 103.115-78.153 154.954-110.736 60.982-38.328 133.57-18.44 196.61 9.279 31.71 13.942 65.712 29.604 92.855 51.625-27.874-28.315 14.996-52.632 37.151-63.68 50.36-25.11 104.465-42.344 156.694-63.077" transform="rotate(-2 1434.269 -12.655)"/>
        <path stroke-width="1.655" d="M1303.308 250.156L1303.308 250.156" transform="rotate(-2 1434.269 -12.655)"/>
        <path stroke-width="1.68" d="M96.703 449.403L96.703 449.403" transform="rotate(-2 1434.269 -12.655)"/>
        <path stroke-dasharray="0 7.998" stroke-width="1.68" d="M99.83 456.664c5.007 15.729 1.144 32.76-3.395 48.107-2.427 8.207-22.437 46.942-16.069 55.122 8.848 11.368 43.648-21.002 50.848-26.371 48.444-36.12 97.723-70.187 155.423-81.14 55.89-10.608 120.262 4.929 178.02-9.88 29.814-7.645 52.374-23.401 84.337-19.268 35.865 4.639 71.061 14.565 107.467 6.908 64.483-13.563 103.556-77.632 155.693-110.107 62.098-38.68 136.274-16.814 200.09 11.223 31.37 13.782 68.624 29.077 94.43 52.458-31.033-24.284 4.448-51.138 26.746-63.121 47.843-25.71 100.52-42.402 150.935-62.277" transform="rotate(-2 1434.269 -12.655)"/>
        <path stroke-width="1.68" d="M1293.873 254.521L1293.873 254.521" transform="rotate(-2 1434.269 -12.655)"/>
        <path stroke-width="1.704" d="M96.59 453.761L96.59 453.761" transform="rotate(-2 1434.269 -12.655)"/>
        <path stroke-dasharray="0 7.998" stroke-width="1.704" d="M98.713 461.482c2.797 16.756-2.261 33.862-7.676 49.568-2.719 7.885-23.762 46.375-17.07 54.613 8.972 11.041 45.923-23.274 52.804-28.489 48.775-36.963 98.296-72.548 156.567-84.219 56.706-11.358 121.237 5.66 180.28-7.19 30.321-6.599 54.472-24.173 86.589-21.58 36.504 2.948 72.454 13.061 109.218 5.281 64.003-13.543 102.361-77.024 154.246-109.01 62.167-38.323 136.684-15.859 200.497 11.814 32.3 14.006 73.473 29.414 99.33 54.414-6.523-3.816-12.198-11.175-14.345-18.473-6.214-21.126 13.568-33.674 29.268-43.017 45.376-27.004 97.412-43.25 146.376-62.514" transform="rotate(-2 1434.269 -12.655)"/>
        <path stroke-width="1.704" d="M1284.349 258.885L1284.349 258.885" transform="rotate(-2 1434.269 -12.655)"/>
        <path stroke-width="1.729" d="M95.917 458.388L95.917 458.388" transform="rotate(-2 1434.269 -12.655)"/>
        <path stroke-dasharray="0 7.998" stroke-width="1.729" d="M96.952 466.536c.715 18.216-5.818 36.134-12.366 52.814-3.303 8.417-24.429 43.622-17.099 52.229 8.818 10.353 45.832-23.684 52.413-28.713 50.071-38.266 100.11-76.612 160.165-89.31 57.05-12.064 120.874 5.824 180.628-4.36 31.578-5.381 57.943-24.692 90.65-23.733 37.885 1.11 75.295 11.789 113.173 2.985 62.253-14.471 99.531-76.283 150.584-107.352 62.264-37.892 137.06-14.841 200.87 12.3 33.65 14.315 77.404 30.378 104.44 56.192-6.906-2.984-13.54-10.66-16.604-17.713-8.263-19.021 5.354-32.024 20.258-42.066 42.296-28.5 94.013-44.17 141.178-62.766" transform="rotate(-2 1434.269 -12.655)"/>
        <path stroke-width="1.729" d="M1274.786 263.25L1274.786 263.25" transform="rotate(-2 1434.269 -12.655)"/>
        <path stroke-width="1.754" d="M94.574 463.266L94.574 463.266" transform="rotate(-2 1434.269 -12.655)"/>
        <path stroke-dasharray="0 7.998" stroke-width="1.754" d="M94.584 471.813c-1.332 18.847-8.735 36.846-16.08 54.021-3.26 7.62-25.192 43.76-17.273 51.492 10.127 9.885 47.4-25.116 54.592-30.68 50.386-38.979 100.52-78.875 161.016-92.446 57.758-12.957 121.67 6.07 182.48-2.05 32.513-4.343 60.135-24.479 93.07-25.096 38.4-.72 76.69 9.992 114.904 1.033 61.745-14.473 98.302-75.615 149.137-106.108 64.174-38.495 141.934-12.59 207.172 15.294 26.27 11.23 52.163 23.672 77.034 37.75 8.888 5.03 19.933 10.075 26.75 17.726-29.243-12.553-27.149-43.344-4.14-60.272 38.63-28.42 88.274-43.52 132.49-61.07" transform="rotate(-2 1434.269 -12.655)"/>
        <path stroke-width="1.754" d="M1265.23 267.615L1265.23 267.615" transform="rotate(-2 1434.269 -12.655)"/>
        <path stroke-width="1.778" d="M92.597 468.381L92.597 468.381" transform="rotate(-2 1434.269 -12.655)"/>
        <path stroke-dasharray="0 7.998" stroke-width="1.778" d="M91.645 477.3c-3.088 18.642-10.832 36.156-18.61 53.238-3.706 8.139-26.344 44.154-17.807 52.374 10.392 10.005 53.823-30.137 59.794-34.832 49.652-39.047 98.897-78.958 158.653-93.173 59.02-14.04 123.675 6.901 185.918-.138 32.948-3.728 60.992-23.516 93.74-25.788 38.168-2.649 76.574 7.72 114.564-.507 62.3-13.49 98.643-75.214 149.754-105.344 64.226-37.863 142.142-11.697 207.414 15.668 27.727 11.625 55.089 24.413 81.419 38.95 9.328 5.151 20.603 10.214 28.065 17.97-26.36-8.825-35.022-40.197-14.18-58.622 33.94-30.005 84.505-44.69 125.958-61.327" transform="rotate(-2 1434.269 -12.655)"/>
        <path stroke-width="1.778" d="M1255.73 271.98L1255.73 271.98" transform="rotate(-2 1434.269 -12.655)"/>
        <path stroke-width="1.803" d="M90.024 473.719L90.024 473.719" transform="rotate(-2 1434.269 -12.655)"/>
        <path stroke-dasharray="0 7.998" stroke-width="1.803" d="M88.17 482.982c-4.602 18.944-13.195 36.691-21.612 54.171-4.016 8.34-26.503 42.917-17.31 51.462 10.783 10.021 56.241-31.954 62.27-36.742 49.88-39.616 99.071-80.99 159.071-96.177 59.597-15.084 124.351 6.901 187.422 1.86 34.39-2.748 62.72-22.249 96.172-26.246 38.57-4.607 77.88 5.66 116.25-2.768 61.778-13.57 97.295-74.25 148.32-103.97 64.303-37.454 142.536-10.69 207.601 15.916 36.594 14.964 85.452 30.897 115.352 58.16-23.386-6.084-40.58-37.033-23.485-56.918 27.136-31.566 81.344-46.309 118.842-61.598" transform="rotate(-2 1434.269 -12.655)"/>
        <path stroke-width="1.803" d="M1246.334 276.344L1246.334 276.344" transform="rotate(-2 1434.269 -12.655)"/>
        <path stroke-width="1.827" d="M86.888 479.266L86.888 479.266" transform="rotate(-2 1434.269 -12.655)"/>
        <path stroke-dasharray="0 7.998" stroke-width="1.827" d="M84.195 488.848c-4.701 14.906-53.44 96.898-40.882 105.586 13.223 9.148 54.013-29.919 62.064-36.344 51.01-40.704 100.92-85.033 162.226-101.509 60.133-16.16 124.962 6.802 188.715 3.667 35.925-1.766 64.29-20.376 98.606-26.2 38.914-6.604 79.134 3.468 117.9-5.186 61.243-13.67 96.468-75.045 146.905-102.533 66.647-36.324 145.722-9.173 214.572 18.89 29.849 12.166 59.4 25.45 87.928 40.478 8.68 4.572 19.795 9.13 26.613 16.211-21.833-7.504-46.213-35.19-30.03-57.67 22.163-30.79 75.5-45.723 109.18-59.743" transform="rotate(-2 1434.269 -12.655)"/>
        <path stroke-width="1.827" d="M1237.089 280.71L1237.089 280.71" transform="rotate(-2 1434.269 -12.655)"/>
        <path stroke-width="1.852" d="M83.229 485.01L83.229 485.01" transform="rotate(-2 1434.269 -12.655)"/>
        <path stroke-dasharray="0 7.998" stroke-width="1.852" d="M79.757 494.885c-5.626 14.853-56.364 95.746-42.032 105.19 13.916 9.168 56.372-31.334 64.736-38.046 51.228-41.116 100.878-86.853 162.27-104.447 59.91-17.168 124.272 6.041 187.916 5.298 38.043-.445 67.093-17.765 102.911-25.632 39.909-8.767 81.885 1.64 121.635-8.294 59.563-14.886 93.508-74.06 143.37-100.526 67.9-36.038 148.688-7.5 218.596 20.529 30.603 12.269 60.936 25.577 90.326 40.546 8.82 4.493 19.34 9.112 26.499 15.514-20.526-7.505-49.957-33.478-36.756-57.31 16.814-30.356 69.8-45.976 99.936-58.847" transform="rotate(-2 1434.269 -12.655)"/>
        <path stroke-width="1.852" d="M1228.045 285.075L1228.045 285.075" transform="rotate(-2 1434.269 -12.655)"/>
        <path stroke-width="1.877" d="M79.08 490.936L79.08 490.936" transform="rotate(-2 1434.269 -12.655)"/>
        <path stroke-dasharray="0 7.998" stroke-width="1.877" d="M74.89 501.077c-6.263 14.417-58.586 95.558-42.377 104.468 16.202 8.907 60.834-34.205 70.44-42.008 50.278-40.833 98.87-86.49 159.039-104.82 60.177-18.332 124.742 5.512 188.739 6.637 39.048.687 68.922-14.504 105.334-24.474 40.113-10.984 82.989-.82 123.184-11.03 58.976-14.977 92.29-73.347 142.002-98.957 67.982-35.024 148.563-6.732 218.647 20.503 30.964 12.034 61.617 25.075 91.56 39.475 10.605 5.099 22.697 9.883 31.913 17.245-20.047-6.925-51.446-31.425-43.733-55.735 9.568-30.157 64.84-47.632 90.987-59.158" transform="rotate(-2 1434.269 -12.655)"/>
        <path stroke-width="1.877" d="M1219.248 289.44L1219.248 289.44" transform="rotate(-2 1434.269 -12.655)"/>
        <path stroke-width="1.901" d="M74.478 497.032L74.478 497.032" transform="rotate(-2 1434.269 -12.655)"/>
        <path stroke-dasharray="0 7.998" stroke-width="1.901" d="M69.633 507.413c-7.13 14.776-60.827 93.709-42.314 103.822 16.234 8.869 60.913-33.571 70.778-41.527 51.557-41.574 100.072-89.867 161.305-109.705 60.37-19.56 125.09 4.94 189.338 7.76 39.573 1.735 70.914-11.121 107.673-22.702 40.452-12.744 83.975-3.455 124.7-13.98 59.291-15.323 88.41-73.096 140.666-97.334 70.927-32.897 148.523-6.08 218.624 20.324 42.673 16.073 91.78 31.937 130.252 57.143-20.142-6.918-52.322-29.874-49.319-54.14 3.726-30.105 57.383-48.638 81.086-59.487" transform="rotate(-2 1434.269 -12.655)"/>
        <path stroke-width="1.901" d="M1210.747 293.805L1210.747 293.805" transform="rotate(-2 1434.269 -12.655)"/>
        <path stroke-width="1.926" d="M69.46 503.284L69.46 503.284" transform="rotate(-2 1434.269 -12.655)"/>
        <path stroke-dasharray="0 7.998" stroke-width="1.926" d="M64.02 513.88c-7.79 14.856-62.595 92.805-41.46 102.864 17.913 8.527 62.697-34.012 73.753-42.94C148 532.068 196 482.533 256.98 461.456c61.106-21.121 126.602 4.897 191.723 8.818 38.875 2.34 71.713-8.034 107.824-20.498 40.34-13.923 83.282-6.643 124.183-16.654 59.805-14.638 88.671-72.63 141.43-96.107 72.371-32.206 151.408-4.587 222.742 21.612 43.987 16.155 92.364 31.968 133.003 55.818-20.196-8.151-54.032-29.082-54.28-53.997-.296-29.51 49.187-48.06 71.001-58.496" transform="rotate(-2 1434.269 -12.655)"/>
        <path stroke-width="1.926" d="M1202.591 298.17L1202.591 298.17" transform="rotate(-2 1434.269 -12.655)"/>
        <path stroke-width="1.951" d="M64.062 509.678L64.062 509.678" transform="rotate(-2 1434.269 -12.655)"/>
        <path stroke-dasharray="0 7.998" stroke-width="1.951" d="M58.088 520.464c-7.814 13.94-64.18 93.652-39.83 101.616 22.005 7.196 66.018-35.354 79.716-46.577 50.44-41.326 97.413-90.58 156.77-112.408 61.087-22.465 126.719 4.024 191.875 9.528 39.324 3.32 73.157-5.577 109.926-18.03 41.216-13.956 83.989-9.066 125.595-19.483 59.036-14.782 87.595-72.055 140.182-94.39 73.513-31.22 154.633-3.047 226.932 22.74 45.448 16.213 92.568 32.52 135.807 54.195-21.131-9.58-55.012-28.433-58.554-53.88-3.996-28.71 40.019-47.028 60.717-57.457" transform="rotate(-2 1434.269 -12.655)"/>
        <path stroke-width="1.951" d="M1194.826 302.536L1194.826 302.536" transform="rotate(-2 1434.269 -12.655)"/>
        <path stroke-width="1.975" d="M58.319 516.2L58.319 516.2" transform="rotate(-2 1434.269 -12.655)"/>
        <path stroke-dasharray="0 7.998" stroke-width="1.975" d="M51.872 527.151c-8.515 14.387-65.692 93.096-37.784 100.444 23.369 6.154 65.218-33.399 80.184-45.53 51.623-41.843 98.38-93.622 158.438-117.129 60.95-23.855 126.692 2.995 191.777 9.994 39.754 4.276 74.52-3.164 111.988-15.467 41.857-13.747 84.79-11.165 126.855-21.952 58.208-14.926 86.985-72.382 138.986-92.62 73.205-28.493 153.354-2.9 226.58 22.121 48.336 16.515 96.016 34.775 143.367 53.898-21.506-11.054-55.03-27.32-62.297-52.597-8.26-28.723 29.8-46.655 50.355-57.63" transform="rotate(-2 1434.269 -12.655)"/>
        <path stroke-width="1.975" d="M1187.501 306.902L1187.501 306.902" transform="rotate(-2 1434.269 -12.655)"/>
        <path stroke-width="2" d="M52.269 522.838L52.269 522.838" transform="rotate(-2 1434.269 -12.655)"/>
        <path stroke-dasharray="0 7.998" stroke-width="2" d="M45.408 533.93c-8.897 14.4-66.883 92.978-34.972 98.997 25.806 4.867 66.358-32.773 83.427-46.57 51.65-41.755 97.62-94.56 157.034-119.358 60.647-25.312 126.506 1.802 191.42 10.206 40.149 5.2 75.826-.765 114.005-12.828 42.266-13.353 85.64-12.903 127.943-24.023 25.256-6.64 47.074-19.843 66.985-36.495 22.39-18.728 43.376-44.662 71.542-53.999 126.202-41.832 256.375 39.652 376.597 74.298-22.651-12.974-54.86-26.967-65.64-52.628-11.49-27.348 20.167-45.008 40.2-56.482" transform="rotate(-2 1434.269 -12.655)"/>
        <path stroke-width="2" d="M1180.665 311.267L1180.665 311.267" transform="rotate(-2 1434.269 -12.655)"/>
    </g>
</svg>
